<svg version="1.1" id="Layer_1" xmlns="http://www.w3.org/2000/svg" xmlns:xlink="http://www.w3.org/1999/xlink" x="0px" y="0px"
	 width="100%" viewBox="0 0 3300 2550" enable-background="new 0 0 3300 2550" xml:space="preserve">
<path fill="#FFFFFF" opacity="1.000000" stroke="none" 
	d="
M1998.000000,2552.000000 
	C1332.000122,2552.000000 667.000244,2552.000000 2.000268,2552.000000 
	C2.000178,1702.000244 2.000178,852.000549 2.000089,2.000610 
	C1101.999512,2.000407 2201.999023,2.000407 3301.999023,2.000203 
	C3301.999268,851.999329 3301.999268,1701.998657 3301.999512,2551.999023 
	C2867.666748,2552.000000 2433.333252,2552.000000 1998.000000,2552.000000 
z"/>
<path fill="#8F2DF4" opacity="1.000000" stroke="none" 
	d="
M746.582275,1214.882568 
	C746.310425,1203.061523 746.130737,1192.080566 741.972290,1180.829346 
	C736.288696,1143.261353 733.072327,1106.172607 727.886169,1069.335449 
	C727.047485,1063.377808 725.516602,1057.588623 721.903381,1051.628418 
	C721.066589,1049.777344 721.019836,1048.656372 721.967773,1046.931763 
	C726.927307,1038.436157 729.710693,1029.876221 732.661743,1021.431824 
	C742.732971,992.612427 772.697327,981.730530 799.188721,992.191406 
	C871.614807,1020.790955 944.425781,1048.419067 1017.175720,1076.192627 
	C1031.918579,1081.820923 1043.571045,1090.409302 1049.299194,1105.467285 
	C1053.992920,1117.806152 1053.227539,1130.117188 1048.442993,1142.478638 
	C1027.301025,1197.101196 1006.393982,1251.814453 985.352905,1306.476074 
	C965.029907,1359.272339 944.568176,1412.015381 924.334839,1464.845825 
	C917.569397,1482.510986 905.252075,1493.244263 886.718628,1496.965820 
	C878.617310,1498.592651 870.752869,1497.631592 863.172791,1494.734497 
	C820.585815,1478.458374 778.038452,1462.078491 735.492554,1445.695190 
	C734.305969,1445.238281 733.286804,1444.346680 732.096436,1443.599365 
	C734.182312,1439.901489 737.895386,1438.881470 740.869629,1437.009521 
	C788.719666,1406.894531 826.725098,1367.713257 851.774719,1316.636230 
	C859.564270,1300.753052 865.468384,1284.184937 869.251343,1266.835571 
	C870.834106,1259.577148 868.429321,1254.520386 862.839050,1250.403931 
	C852.105774,1242.500854 838.555115,1244.169189 829.823059,1254.430908 
	C824.547852,1260.630005 821.679932,1268.151001 818.460327,1275.438965 
	C811.322571,1291.596558 803.617981,1307.453003 794.407959,1322.543213 
	C786.412170,1335.644043 777.558105,1348.124146 766.715393,1359.896362 
	C762.052917,1356.487915 761.870789,1351.359131 761.315491,1346.448730 
	C757.130981,1309.444336 752.547485,1272.487793 747.810120,1235.552124 
	C746.956970,1228.900879 747.912048,1222.272705 746.582275,1214.882568 
z"/>
<path fill="#FF0202" opacity="1.000000" stroke="none" 
	d="
M437.460205,1187.928955 
	C437.772797,1190.555786 435.903015,1192.571045 434.565552,1194.838501 
	C393.321838,1264.763062 403.751770,1355.312256 460.076050,1413.810303 
	C486.402069,1441.152344 516.735107,1462.109741 554.418823,1470.822021 
	C578.345337,1476.353516 602.482300,1477.479736 626.844971,1474.738037 
	C630.144165,1474.366577 633.457581,1474.121460 636.843384,1473.810669 
	C637.486206,1477.292480 634.577759,1477.620728 632.912598,1478.680420 
	C592.474426,1504.414062 552.064514,1530.193359 511.491364,1555.713135 
	C486.588837,1571.376343 459.002747,1565.032349 443.082184,1540.030151 
	C396.955444,1467.591187 350.970306,1395.062134 304.946777,1322.557495 
	C301.908905,1317.771606 299.347656,1312.758789 297.712372,1307.274902 
	C293.500000,1293.149292 296.693024,1281.082031 307.272980,1270.810913 
	C313.103424,1265.150635 320.359894,1261.703735 327.091888,1257.442261 
	C363.651855,1234.299316 400.236603,1211.195557 437.460205,1187.928955 
z"/>
<path fill="#040404" opacity="1.000000" stroke="none" 
	d="
M2180.146973,1292.000000 
	C2180.147217,1257.352661 2180.125244,1223.705322 2180.163574,1190.057983 
	C2180.172852,1182.085327 2180.266113,1181.995728 2188.390625,1181.990234 
	C2233.697998,1181.959351 2279.005371,1181.959351 2324.312744,1181.990967 
	C2332.035889,1181.996338 2332.124756,1182.090088 2332.167236,1189.358032 
	C2332.239258,1201.683838 2332.233398,1214.010620 2332.169678,1226.336548 
	C2332.130615,1233.892944 2332.054688,1233.993286 2324.618164,1234.006226 
	C2297.966797,1234.052612 2271.315430,1234.024414 2244.664062,1234.025269 
	C2242.332031,1234.025269 2239.992676,1234.149414 2237.669678,1234.005615 
	C2234.191162,1233.790527 2233.015381,1235.459229 2233.032471,1238.745728 
	C2233.101074,1252.071045 2233.105713,1265.397217 2233.017822,1278.722290 
	C2232.993896,1282.351440 2234.031006,1284.409790 2238.140137,1284.016479 
	C2240.780762,1283.763672 2243.465820,1283.974854 2246.130859,1283.974976 
	C2272.448975,1283.975586 2298.767334,1283.941650 2325.085449,1283.999146 
	C2332.015137,1284.014282 2332.117920,1284.143066 2332.163818,1291.131470 
	C2332.244873,1303.457275 2332.250000,1315.784302 2332.161865,1328.109985 
	C2332.113525,1334.867554 2331.998291,1335.001831 2324.758057,1335.018433 
	C2298.106689,1335.079468 2271.455322,1335.042358 2244.803955,1335.044312 
	C2242.471924,1335.044434 2240.135498,1335.157227 2237.809326,1335.044678 
	C2234.442627,1334.881592 2233.024902,1336.322266 2233.035889,1339.735962 
	C2233.104004,1361.056641 2233.105225,1382.377808 2233.053467,1403.698608 
	C2233.040039,1409.244751 2237.061523,1407.931519 2240.111328,1407.939087 
	C2265.430176,1408.001709 2290.749023,1407.931641 2316.067627,1408.012207 
	C2321.010498,1408.027954 2327.197021,1405.973633 2330.591309,1408.916992 
	C2334.583496,1412.378784 2331.951172,1418.927856 2332.098877,1424.105713 
	C2332.393555,1434.424561 2332.056152,1444.760254 2332.245361,1455.084106 
	C2332.316650,1458.965088 2330.949707,1460.299438 2327.078613,1460.247925 
	C2314.421631,1460.078857 2301.760986,1460.190918 2289.101562,1460.191406 
	C2255.787354,1460.192383 2222.473145,1460.180664 2189.158936,1460.197998 
	C2178.939453,1460.203369 2180.156494,1460.399536 2180.153809,1450.909424 
	C2180.139404,1398.272949 2180.146973,1345.636475 2180.146973,1292.000000 
z"/>
<path fill="#040404" opacity="1.000000" stroke="none" 
	d="
M2479.555176,1250.351562 
	C2497.395752,1254.052490 2512.029541,1262.214722 2525.209229,1274.295166 
	C2529.958252,1268.008301 2525.982666,1260.940186 2528.663330,1254.159180 
	C2543.900879,1254.159180 2559.479004,1254.186035 2575.057129,1254.134888 
	C2577.927002,1254.125488 2579.432861,1255.249390 2579.411621,1258.202271 
	C2579.394775,1260.535156 2579.429688,1262.868286 2579.429932,1265.201294 
	C2579.431152,1326.527344 2579.430908,1387.853394 2579.430420,1449.179443 
	C2579.430420,1451.179199 2579.331543,1453.184082 2579.443604,1455.177368 
	C2579.621582,1458.349731 2578.677002,1460.223755 2575.048340,1460.206299 
	C2559.456299,1460.131226 2543.863525,1460.174194 2528.412354,1460.174194 
	C2526.676514,1453.543457 2528.685791,1447.417847 2526.970215,1441.656372 
	C2523.552246,1440.775879 2522.042969,1443.482910 2520.166504,1445.088013 
	C2486.099121,1474.227661 2436.315918,1470.926270 2404.547852,1443.436890 
	C2373.716553,1416.758057 2363.082520,1382.510864 2366.822510,1342.980835 
	C2369.429443,1315.423950 2380.194092,1291.615723 2400.920654,1272.791870 
	C2420.753174,1254.779663 2444.113037,1247.151123 2470.758057,1249.435181 
	C2473.414307,1249.662720 2476.065186,1249.951782 2479.555176,1250.351562 
z"/>
<path fill="#030303" opacity="1.000000" stroke="none" 
	d="
M2894.437500,1248.987549 
	C2913.191895,1248.775635 2930.693115,1250.907959 2946.941406,1258.641357 
	C2980.424072,1274.577759 2999.563477,1301.462524 3005.937744,1337.727661 
	C3007.615479,1347.274048 3007.950684,1356.909912 3007.946533,1366.597046 
	C3007.944824,1371.010498 3006.357910,1372.609619 3002.135498,1372.215942 
	C3000.153320,1372.031006 2998.139404,1372.186279 2996.139893,1372.186279 
	C2948.818115,1372.186401 2901.496094,1372.186401 2854.174316,1372.186401 
	C2850.550537,1372.186401 2846.927002,1372.186279 2843.307373,1372.186279 
	C2843.554443,1390.612183 2857.332764,1409.097900 2876.544189,1415.647949 
	C2900.925781,1423.960571 2923.977051,1420.712158 2944.360840,1404.550537 
	C2949.325195,1400.614380 2952.831787,1400.213745 2958.301514,1403.061768 
	C2969.750977,1409.022949 2981.615723,1414.186646 2994.004395,1420.003906 
	C2979.223877,1441.617432 2959.979004,1455.427368 2935.525146,1461.477173 
	C2914.570068,1466.661133 2893.382812,1467.122803 2872.171387,1462.284058 
	C2826.450195,1451.854248 2794.058838,1412.869141 2791.949463,1366.006592 
	C2790.314697,1329.693237 2800.813965,1298.372559 2828.646973,1273.890503 
	C2847.187988,1257.581787 2869.112061,1250.038330 2894.437500,1248.987549 
z"/>
<path fill="#66DC32" opacity="1.000000" stroke="none" 
	d="
M722.126099,1045.803955 
	C722.483276,1047.112305 722.371643,1047.880859 722.303955,1049.230835 
	C723.357422,1057.906738 718.535400,1064.349487 715.877808,1071.290283 
	C709.034851,1089.162109 703.362000,1107.519531 693.772705,1124.787354 
	C677.093262,1117.388550 661.032654,1110.223511 643.505798,1107.150269 
	C601.761902,1099.830200 560.625244,1101.573975 521.143311,1117.882202 
	C491.331940,1130.195679 467.653748,1150.982544 447.645081,1176.041138 
	C444.744415,1179.673950 442.036377,1183.460449 438.673340,1187.477783 
	C438.107544,1187.779663 438.139496,1187.875366 438.190613,1187.888428 
	C435.905487,1167.060181 433.601807,1146.215210 431.214722,1125.379761 
	C430.419098,1118.435059 429.258606,1111.530884 428.525330,1104.580688 
	C425.821503,1078.952881 444.280212,1055.512573 470.149414,1052.311401 
	C516.079773,1046.627686 562.053223,1041.292358 608.007019,1035.797729 
	C630.487793,1033.109741 653.004456,1030.679077 675.431702,1027.599121 
	C694.271179,1025.011963 709.460693,1030.970581 722.126099,1045.803955 
z"/>
<path fill="#040404" opacity="1.000000" stroke="none" 
	d="
M2625.617676,1326.236572 
	C2614.573242,1294.638916 2632.937744,1261.955933 2665.125244,1252.673096 
	C2698.654541,1243.003540 2728.284424,1251.246094 2752.383545,1277.090820 
	C2757.583008,1282.666748 2757.477783,1282.882568 2752.301758,1288.112305 
	C2743.426514,1297.079346 2734.466309,1305.962524 2725.463623,1314.959351 
	C2719.350098,1310.299561 2714.422852,1305.287720 2708.319092,1301.790161 
	C2701.531250,1297.900635 2694.479736,1295.337891 2686.491943,1296.081543 
	C2682.750244,1296.429932 2679.312012,1297.520386 2676.337402,1299.809204 
	C2670.638916,1304.194336 2670.031738,1311.040894 2674.922119,1316.314941 
	C2677.914795,1319.541992 2681.853760,1321.492798 2685.682129,1323.475342 
	C2696.018799,1328.828247 2706.506592,1333.891235 2716.804688,1339.315674 
	C2721.796875,1341.945312 2726.589355,1344.987915 2731.315674,1348.082153 
	C2755.395020,1363.847534 2765.214355,1386.334229 2759.651855,1414.248901 
	C2754.280518,1441.204224 2735.934814,1456.879272 2709.803955,1462.815552 
	C2680.796875,1469.405518 2653.525146,1465.131836 2629.783447,1445.875244 
	C2625.671143,1442.539917 2622.188477,1438.429810 2618.401611,1434.691284 
	C2615.634033,1431.959351 2615.065430,1429.552856 2618.166504,1426.299805 
	C2627.572266,1416.432739 2636.675293,1406.277100 2646.369629,1395.718506 
	C2648.982666,1398.090210 2651.287109,1400.278809 2653.693115,1402.349121 
	C2662.902344,1410.273071 2672.977295,1416.554688 2685.242920,1418.485474 
	C2691.652100,1419.494263 2697.926270,1418.942383 2703.630615,1415.649780 
	C2713.362061,1410.032471 2714.878174,1400.703857 2707.418701,1392.255249 
	C2702.720459,1386.934082 2696.636230,1383.434326 2690.409668,1380.195923 
	C2680.681396,1375.136353 2670.726807,1370.459839 2661.286377,1364.909912 
	C2645.815674,1355.814941 2632.574951,1344.386353 2625.617676,1326.236572 
z"/>
<path fill="#070707" opacity="1.000000" stroke="none" 
	d="
M1141.628052,1435.932373 
	C1141.628052,1354.293701 1141.604004,1273.641602 1141.651855,1192.989502 
	C1141.659790,1179.773804 1140.286499,1182.028442 1152.763184,1182.000854 
	C1198.421387,1181.899902 1244.079956,1181.960571 1289.738403,1181.961426 
	C1292.071289,1181.961426 1294.407227,1182.049561 1296.736084,1181.955688 
	C1299.636108,1181.838623 1301.056519,1183.098511 1301.045410,1186.029907 
	C1301.021240,1192.361816 1301.000000,1198.694458 1301.055054,1205.026001 
	C1301.085571,1208.537598 1299.219971,1209.636963 1296.012329,1209.468384 
	C1293.685913,1209.346191 1291.347778,1209.447998 1289.014893,1209.447998 
	C1252.021606,1209.448364 1215.028198,1209.447510 1178.034912,1209.448730 
	C1169.174072,1209.448975 1169.695679,1208.687622 1169.697754,1217.262329 
	C1169.703247,1240.924683 1169.719238,1264.587158 1169.690308,1288.249512 
	C1169.679321,1297.197021 1169.708374,1296.125366 1177.988159,1296.125854 
	C1214.981445,1296.128174 1251.974854,1296.126465 1288.968140,1296.127686 
	C1291.301025,1296.127686 1293.635498,1296.197144 1295.966431,1296.131226 
	C1298.956665,1296.046631 1300.066895,1297.546997 1300.037231,1300.396851 
	C1299.971313,1306.728271 1299.907471,1313.063477 1300.062134,1319.391846 
	C1300.150024,1322.988525 1298.418091,1324.057983 1295.176147,1323.887207 
	C1292.849976,1323.764648 1290.511719,1323.872437 1288.178833,1323.872437 
	C1251.185547,1323.873169 1214.192139,1323.892090 1177.198853,1323.857666 
	C1169.343994,1323.850464 1169.684937,1323.530640 1169.690796,1331.540039 
	C1169.713501,1362.867676 1169.673340,1394.195435 1169.720947,1425.523071 
	C1169.731445,1432.403809 1169.853027,1432.523315 1176.820679,1432.531250 
	C1214.147217,1432.573608 1251.473877,1432.551270 1288.800415,1432.552734 
	C1291.133301,1432.552734 1293.466675,1432.598633 1295.798950,1432.562500 
	C1298.656860,1432.518311 1300.057983,1433.771851 1300.033325,1436.737427 
	C1299.970215,1444.356201 1300.012329,1451.975952 1300.012329,1459.898193 
	C1247.029785,1459.898193 1194.798218,1459.898193 1141.628052,1459.898193 
	C1141.628052,1452.052490 1141.628052,1444.485840 1141.628052,1435.932373 
z"/>
<path fill="#070707" opacity="1.000000" stroke="none" 
	d="
M1677.940674,1463.798340 
	C1658.744141,1466.827148 1640.507080,1466.239136 1622.657715,1461.135010 
	C1587.645630,1451.123413 1565.794800,1426.679443 1554.970947,1393.381836 
	C1540.828613,1349.876343 1550.289917,1310.435913 1582.377441,1277.382202 
	C1603.120972,1256.013794 1629.434326,1248.286621 1658.653809,1248.947266 
	C1720.324219,1250.341675 1756.868042,1298.660278 1760.548218,1343.892456 
	C1761.837646,1359.742554 1762.285522,1359.706421 1746.211914,1359.706421 
	C1693.587891,1359.706421 1640.963867,1359.706421 1588.339844,1359.706421 
	C1584.702637,1359.706421 1581.065430,1359.706421 1577.481445,1359.706421 
	C1574.979004,1397.072266 1603.401855,1435.863037 1643.104736,1439.887085 
	C1678.577881,1443.482300 1707.009644,1431.028809 1726.610107,1400.369019 
	C1732.271362,1391.513550 1732.443359,1391.623047 1741.484619,1396.357910 
	C1742.957642,1397.129272 1744.449341,1397.867432 1745.898071,1398.681885 
	C1755.397705,1404.022583 1756.129883,1401.652588 1750.041382,1412.135254 
	C1733.946289,1439.846558 1710.446533,1457.420654 1677.940674,1463.798340 
z"/>
<path fill="#7002DF" opacity="1.000000" stroke="none" 
	d="
M746.051331,1214.863647 
	C748.604004,1216.169556 749.807434,1218.924805 749.890991,1221.971313 
	C750.435181,1241.814331 754.688660,1261.244629 756.311096,1280.990845 
	C757.846802,1299.682007 761.549866,1318.185791 763.596252,1336.848999 
	C764.386230,1344.053955 764.870300,1351.304688 766.049927,1359.348389 
	C753.347961,1376.237305 737.841248,1389.052124 720.059753,1399.122681 
	C704.423157,1407.978516 687.969543,1414.994019 669.997620,1420.484253 
	C649.493958,1416.848511 630.531311,1411.262207 615.912354,1396.524414 
	C600.273621,1380.758667 598.309021,1353.901855 611.529236,1334.512207 
	C625.137512,1330.105347 638.413391,1327.092896 651.169250,1322.222412 
	C668.676270,1315.537720 685.232361,1307.207153 700.053772,1295.637573 
	C726.216980,1275.214600 741.908508,1248.787720 746.051331,1214.863647 
z"/>
<path fill="#070707" opacity="1.000000" stroke="none" 
	d="
M1893.314209,1251.427856 
	C1909.380005,1247.852051 1924.650146,1247.657715 1939.435425,1252.986328 
	C1969.253540,1263.732422 1983.924316,1286.299561 1987.999512,1316.817993 
	C1989.501953,1328.070312 1990.169434,1339.365601 1990.177002,1350.705688 
	C1990.199829,1384.703003 1990.178345,1418.700317 1990.219604,1452.697632 
	C1990.230103,1461.256470 1990.201782,1460.248657 1982.613525,1460.188965 
	C1976.655518,1460.142090 1968.826416,1462.172485 1965.220093,1459.185425 
	C1960.811035,1455.533569 1963.764038,1447.352417 1963.710571,1441.162720 
	C1963.439819,1409.836060 1963.535645,1378.506104 1963.291016,1347.179077 
	C1963.228760,1339.194702 1962.773804,1331.171997 1961.849731,1323.242676 
	C1957.009888,1281.708496 1928.984985,1269.086670 1896.080811,1275.038696 
	C1867.232422,1280.257446 1844.039429,1306.302246 1839.802124,1335.526001 
	C1837.639282,1350.442139 1837.631470,1365.423096 1837.501099,1380.402466 
	C1837.301025,1403.398804 1837.448242,1426.398438 1837.448120,1449.396606 
	C1837.448120,1452.694824 1837.448120,1455.993164 1837.448120,1459.532471 
	C1828.256714,1460.838135 1819.683594,1459.967651 1811.314941,1460.125610 
	C1809.627686,1456.351562 1810.339600,1452.995117 1810.336914,1449.741943 
	C1810.287354,1388.080078 1810.300537,1326.418335 1810.300537,1264.756470 
	C1810.300537,1263.756592 1810.284058,1262.756226 1810.303345,1261.756714 
	C1810.447754,1254.275757 1810.461060,1253.959717 1818.046631,1254.226562 
	C1824.237671,1254.444458 1832.019409,1251.326050 1836.202393,1255.770508 
	C1839.920410,1259.721191 1837.185303,1267.233032 1837.412354,1273.166260 
	C1837.589966,1277.807251 1837.448120,1282.460327 1837.448120,1289.652832 
	C1853.387451,1271.114014 1869.940674,1256.741089 1893.314209,1251.427856 
z"/>
<path fill="#3BC204" opacity="1.000000" stroke="none" 
	d="
M611.200317,1333.851074 
	C610.688782,1337.981934 609.310486,1342.043457 607.886841,1346.088989 
	C599.138306,1370.949463 610.368896,1396.619141 634.702576,1406.864258 
	C645.671814,1411.482666 656.824463,1415.665649 668.537842,1420.330811 
	C616.368042,1439.346436 565.014893,1438.453857 517.370178,1406.368896 
	C486.647919,1385.680054 467.725006,1355.880859 458.728607,1319.906494 
	C458.591095,1319.356445 458.940491,1318.684692 459.260590,1317.073120 
	C483.975250,1323.296631 508.329163,1330.991455 533.683044,1334.301025 
	C559.288452,1337.643677 584.794006,1337.532349 611.200317,1333.851074 
z"/>
<path fill="#3BC204" opacity="1.000000" stroke="none" 
	d="
M610.389526,1289.025391 
	C582.140808,1296.172363 554.324036,1294.282959 526.596985,1289.423462 
	C504.591919,1285.566895 483.163025,1279.397217 462.157501,1271.780029 
	C458.661011,1270.511963 455.412659,1269.601074 456.450195,1264.351318 
	C464.743530,1222.389160 485.538757,1188.934082 522.533569,1166.391968 
	C525.076477,1164.842529 527.907349,1163.765747 531.304932,1162.389160 
	C541.156006,1168.512451 545.942932,1178.264160 551.560181,1187.163818 
	C569.122864,1214.988892 586.851868,1242.707520 604.403503,1270.537842 
	C607.754883,1275.851929 613.524414,1280.777344 610.389526,1289.025391 
z"/>
<path fill="#65DB31" opacity="1.000000" stroke="none" 
	d="
M610.685669,1289.638916 
	C610.344666,1286.177612 609.487427,1283.304077 607.545044,1280.278076 
	C595.202148,1261.049316 583.156311,1241.630127 570.940063,1222.319702 
	C562.088501,1208.327881 552.923401,1194.529907 544.307190,1180.396118 
	C540.668823,1174.427612 535.514038,1169.684692 532.011536,1162.994629 
	C546.005615,1153.342407 561.799927,1148.838135 577.868469,1146.801880 
	C612.634033,1142.396484 645.422668,1149.173950 675.850586,1168.355713 
	C677.777588,1171.500244 676.696289,1174.017944 675.721191,1176.486694 
	C662.264221,1210.558594 649.566101,1244.923584 636.114868,1278.997437 
	C635.745605,1279.932617 635.059082,1280.681885 633.657349,1281.754150 
	C626.665527,1287.137329 618.511536,1286.871582 610.685669,1289.638916 
z"/>
<path fill="#070707" opacity="1.000000" stroke="none" 
	d="
M1501.854492,1292.159058 
	C1477.203125,1346.047729 1452.847412,1399.240601 1428.356079,1452.370728 
	C1426.976074,1455.364380 1427.177490,1460.337036 1422.015381,1460.078125 
	C1417.660767,1459.859497 1417.591797,1455.475098 1416.313721,1452.708984 
	C1387.172852,1389.640869 1358.162598,1326.512573 1329.149780,1263.385498 
	C1327.933716,1260.739502 1326.930908,1257.995361 1325.358398,1254.145386 
	C1334.242432,1254.145386 1342.102295,1254.298218 1349.952026,1254.082520 
	C1354.036133,1253.970337 1354.741943,1256.985474 1355.956909,1259.601685 
	C1360.716309,1269.850220 1365.400635,1280.133545 1370.124634,1290.398560 
	C1385.690063,1324.221069 1401.232056,1358.054321 1416.876709,1391.840210 
	C1418.356934,1395.036743 1419.177368,1398.717529 1422.172974,1401.441528 
	C1425.538452,1398.908081 1426.226807,1395.209961 1427.653809,1392.084595 
	C1447.397095,1348.844238 1467.129517,1305.598145 1486.576538,1262.224243 
	C1489.197144,1256.379272 1491.971558,1253.070801 1499.013794,1253.965454 
	C1505.131104,1254.742554 1511.425537,1254.127197 1519.184326,1254.127197 
	C1513.097046,1267.441650 1507.608887,1279.445557 1501.854492,1292.159058 
z"/>
<path fill="#040404" opacity="1.000000" stroke="none" 
	d="
M2069.812988,1225.984497 
	C2069.813477,1211.335449 2070.003906,1197.678589 2069.714111,1184.031982 
	C2069.609863,1179.136963 2071.271240,1177.560913 2076.014648,1177.907593 
	C2082.275879,1178.365112 2090.174072,1176.075928 2094.428955,1179.101562 
	C2099.188232,1182.485962 2095.972412,1190.861328 2096.082520,1197.023315 
	C2096.385986,1214.000732 2096.341553,1230.989258 2096.090820,1247.968262 
	C2096.020020,1252.763916 2097.480957,1254.397461 2102.311523,1254.232544 
	C2111.624512,1253.914307 2120.956299,1254.096680 2130.280029,1254.155029 
	C2138.032715,1254.203491 2138.032715,1254.256470 2138.187256,1261.521484 
	C2138.531250,1277.692139 2138.530762,1277.692017 2122.059082,1277.692017 
	C2116.065186,1277.692017 2110.070801,1277.643555 2104.077637,1277.704346 
	C2096.271973,1277.783569 2096.230713,1277.820801 2096.197510,1286.052856 
	C2096.154785,1296.708618 2096.187012,1307.364502 2096.187012,1318.020386 
	C2096.187012,1362.641724 2096.185547,1407.263184 2096.188232,1451.884521 
	C2096.188721,1460.249756 2097.041992,1460.261963 2088.292969,1460.196289 
	C2083.631348,1460.161255 2078.962402,1460.029053 2074.309326,1460.226807 
	C2070.742432,1460.378174 2069.576172,1458.794800 2069.792969,1455.475464 
	C2069.944336,1453.154663 2069.812988,1450.815430 2069.812988,1448.484497 
	C2069.812744,1395.538208 2069.812988,1342.591919 2069.812744,1289.645630 
	C2069.812744,1287.314697 2069.598877,1284.960571 2069.853027,1282.657837 
	C2070.318604,1278.437500 2068.072998,1277.612915 2064.516113,1277.659668 
	C2056.192627,1277.769043 2047.862427,1277.531982 2039.543701,1277.759888 
	C2035.461060,1277.871582 2033.746460,1276.853149 2033.528320,1272.306885 
	C2032.656006,1254.133057 2032.485352,1254.208130 2050.715088,1254.103149 
	C2056.664062,1254.068848 2064.249756,1256.554199 2068.145996,1253.078003 
	C2072.646973,1249.062500 2069.199463,1241.153564 2069.771973,1234.968872 
	C2070.016602,1232.327515 2069.812988,1229.644653 2069.812988,1225.984497 
z"/>
<path fill="#7002DF" opacity="1.000000" stroke="none" 
	d="
M633.774963,1282.212402 
	C642.827332,1255.986572 652.656250,1229.846924 662.587524,1203.746216 
	C666.844238,1192.558960 671.314148,1181.452759 675.989380,1169.565918 
	C702.740784,1184.985229 704.883484,1209.691284 695.421814,1229.793457 
	C682.991516,1256.202637 662.085938,1273.164185 633.774963,1282.212402 
z"/>
<path fill="#7002DF" opacity="1.000000" stroke="none" 
	d="
M693.449036,1125.451172 
	C702.527405,1100.343872 712.054443,1075.717041 721.964722,1050.451172 
	C725.960266,1050.455200 726.938293,1053.478638 727.793152,1056.295532 
	C729.812744,1062.950562 731.210022,1069.738159 732.030457,1076.677612 
	C734.436829,1097.029419 737.111938,1117.349243 739.576172,1137.694336 
	C741.127014,1150.498657 742.510010,1163.323608 743.888123,1176.147827 
	C743.986511,1177.063354 743.424622,1178.049927 742.579773,1179.518555 
	C732.011719,1156.619263 715.101624,1139.366943 693.449036,1125.451172 
z"/>
<path fill="#FCFCFC" opacity="1.000000" stroke="none" 
	d="
M2436.611816,1403.416260 
	C2416.445801,1382.478516 2413.543213,1358.374146 2422.177246,1332.654175 
	C2429.990234,1309.379395 2452.661133,1295.111694 2476.350830,1296.917358 
	C2503.261719,1298.968506 2523.010010,1316.076172 2528.135742,1341.429199 
	C2530.558105,1353.411743 2530.383301,1365.267822 2527.031250,1376.947998 
	C2514.068115,1422.117065 2462.446777,1428.588867 2436.611816,1403.416260 
z"/>
<path fill="#F5F5F5" opacity="1.000000" stroke="none" 
	d="
M2845.815186,1328.891357 
	C2861.730957,1297.955811 2890.288818,1285.649780 2920.750977,1296.028320 
	C2935.215576,1300.956177 2946.198486,1310.114258 2952.905762,1324.041748 
	C2953.619629,1325.523926 2954.128906,1327.119873 2954.575195,1328.707397 
	C2954.731201,1329.262817 2954.412109,1329.951904 2954.306152,1330.602539 
	C2952.592041,1332.040527 2950.528564,1331.410278 2948.625977,1331.412720 
	C2916.714844,1331.454346 2884.803467,1331.478149 2852.892578,1331.370605 
	C2850.496094,1331.362549 2847.506836,1332.803223 2845.815186,1328.891357 
z"/>
<path fill="#FCFCFC" opacity="1.000000" stroke="none" 
	d="
M1720.348755,1307.877441 
	C1725.795410,1316.766479 1729.497803,1325.570190 1731.624023,1335.657715 
	C1680.976562,1335.657715 1630.798462,1335.657715 1580.609375,1335.657715 
	C1583.503418,1309.303833 1605.862427,1285.036011 1633.975342,1277.267334 
	C1668.671265,1267.679688 1705.524048,1284.231934 1720.348755,1307.877441 
z"/>
</svg>